<?xml version="1.0" standalone="no"?><!DOCTYPE svg PUBLIC "-//W3C//DTD SVG 1.1//EN" "http://www.w3.org/Graphics/SVG/1.1/DTD/svg11.dtd"><svg class="icon" width="64px" height="64.00px" viewBox="0 0 1024 1024" version="1.1" xmlns="http://www.w3.org/2000/svg"><path fill="#FEAC01" d="M901.12 424.96H122.88c-20.48 0-40.96-15.36-40.96-35.84s20.48-40.96 40.96-40.96h778.24c20.48 0 40.96 15.36 40.96 40.96s-20.48 35.84-40.96 35.84zM901.12 675.84H122.88c-20.48 0-40.96-15.36-40.96-40.96s15.36-40.96 40.96-40.96h778.24c20.48 0 40.96 15.36 40.96 40.96s-20.48 40.96-40.96 40.96z"  /><path fill="#FEAC01" d="M348.16 921.6s-5.12 0 0 0c-25.6-5.12-40.96-20.48-40.96-40.96L389.12 138.24c5.12-20.48 25.6-35.84 46.08-35.84s35.84 20.48 35.84 40.96L384 885.76c0 20.48-15.36 35.84-35.84 35.84zM593.92 921.6c-25.6-5.12-40.96-20.48-35.84-40.96l81.92-742.4c0-20.48 20.48-35.84 40.96-35.84s35.84 20.48 35.84 40.96l-81.92 742.4c-5.12 20.48-20.48 35.84-40.96 35.84z"  /></svg>