<?xml version="1.0" standalone="no"?><!DOCTYPE svg PUBLIC "-//W3C//DTD SVG 1.1//EN" "http://www.w3.org/Graphics/SVG/1.1/DTD/svg11.dtd"><svg class="icon" width="64px" height="64.00px" viewBox="0 0 1024 1024" version="1.1" xmlns="http://www.w3.org/2000/svg"><path fill="#FEAC01" d="M727.04 465.92H128c-20.48 0-40.96-15.36-40.96-40.96s15.36-40.96 40.96-40.96h599.04c20.48 0 40.96 15.36 40.96 40.96s-20.48 40.96-40.96 40.96zM896 296.96h-768c-20.48 0-35.84-20.48-35.84-40.96s15.36-40.96 40.96-40.96h768c20.48 0 40.96 15.36 40.96 40.96s-25.6 40.96-46.08 40.96zM896 634.88h-768c-20.48 0-40.96-15.36-40.96-40.96s15.36-40.96 40.96-40.96h768c20.48 0 40.96 15.36 40.96 40.96s-20.48 40.96-40.96 40.96zM727.04 808.96H128c-20.48 0-40.96-15.36-40.96-40.96s15.36-40.96 40.96-40.96h599.04c20.48 0 40.96 15.36 40.96 40.96s-20.48 40.96-40.96 40.96z"  /></svg>