<?xml version="1.0" standalone="no"?><!DOCTYPE svg PUBLIC "-//W3C//DTD SVG 1.1//EN" "http://www.w3.org/Graphics/SVG/1.1/DTD/svg11.dtd"><svg class="icon" width="64px" height="64.00px" viewBox="0 0 1024 1024" version="1.1" xmlns="http://www.w3.org/2000/svg"><path fill="#FEAC01" d="M424.96 465.92H128c-20.48 0-40.96-15.36-40.96-40.96V128c0-20.48 15.36-40.96 40.96-40.96h296.96c20.48 0 40.96 15.36 40.96 40.96v296.96c0 20.48-20.48 40.96-40.96 40.96zM163.84 389.12h220.16V163.84H163.84v225.28zM896 465.92h-296.96c-20.48 0-40.96-15.36-40.96-40.96V128c0-20.48 15.36-40.96 40.96-40.96h296.96c20.48 0 40.96 15.36 40.96 40.96v296.96c-5.12 20.48-20.48 40.96-40.96 40.96z m-261.12-76.8h220.16V163.84h-220.16v225.28zM896 931.84h-296.96c-20.48 0-40.96-15.36-40.96-40.96v-296.96c0-20.48 15.36-40.96 40.96-40.96h296.96c20.48 0 40.96 15.36 40.96 40.96v296.96c-5.12 25.6-20.48 40.96-40.96 40.96z m-261.12-71.68h220.16v-220.16h-220.16v220.16zM424.96 931.84H128c-20.48 0-40.96-15.36-40.96-40.96v-296.96c0-20.48 15.36-40.96 40.96-40.96h296.96c20.48 0 40.96 15.36 40.96 40.96v296.96c0 25.6-20.48 40.96-40.96 40.96z m-261.12-71.68h220.16v-220.16H163.84v220.16z"  /></svg>