<?xml version="1.0" standalone="no"?><!DOCTYPE svg PUBLIC "-//W3C//DTD SVG 1.1//EN" "http://www.w3.org/Graphics/SVG/1.1/DTD/svg11.dtd"><svg class="icon" width="64px" height="64.00px" viewBox="0 0 1024 1024" version="1.1" xmlns="http://www.w3.org/2000/svg"><path fill="#FEAC01" d="M512 952.32c-245.76 0-440.32-199.68-440.32-440.32S266.24 71.68 512 71.68s440.32 199.68 440.32 440.32-194.56 440.32-440.32 440.32z m0-803.84c-199.68 0-363.52 163.84-363.52 363.52s163.84 363.52 363.52 363.52 363.52-163.84 363.52-363.52-163.84-363.52-363.52-363.52z"  /><path fill="#FEAC01" d="M512 670.72c-87.04 0-158.72-71.68-158.72-158.72S424.96 353.28 512 353.28s158.72 71.68 158.72 158.72-71.68 158.72-158.72 158.72z m0-240.64c-46.08 0-81.92 35.84-81.92 81.92 0 46.08 35.84 81.92 81.92 81.92s81.92-35.84 81.92-81.92c0-46.08-35.84-81.92-81.92-81.92z"  /></svg>