<?xml version="1.0" standalone="no"?><!DOCTYPE svg PUBLIC "-//W3C//DTD SVG 1.1//EN" "http://www.w3.org/Graphics/SVG/1.1/DTD/svg11.dtd"><svg class="icon" width="64px" height="64.00px" viewBox="0 0 1024 1024" version="1.1" xmlns="http://www.w3.org/2000/svg"><path fill="#FEAC01" d="M343.04 977.92c-5.12 0-10.24 0-15.36-5.12-15.36-5.12-25.6-20.48-25.6-35.84v-133.12H128c-20.48 0-40.96-15.36-40.96-40.96V87.04c0-20.48 15.36-40.96 40.96-40.96h768c20.48 0 40.96 15.36 40.96 40.96v512c0 10.24-5.12 20.48-10.24 25.6l-168.96 168.96c-5.12 5.12-15.36 10.24-25.6 10.24h-199.68l-158.72 158.72c-10.24 10.24-20.48 15.36-30.72 15.36z m-179.2-250.88h174.08c20.48 0 40.96 15.36 40.96 40.96v76.8l107.52-107.52c5.12-5.12 15.36-10.24 25.6-10.24h199.68l148.48-148.48V122.88H163.84v604.16z m517.12-220.16c-20.48 0-40.96-15.36-40.96-40.96V296.96c0-20.48 15.36-40.96 40.96-40.96s40.96 15.36 40.96 40.96v168.96c0 25.6-20.48 40.96-40.96 40.96z m-209.92 0c-20.48 0-40.96-15.36-40.96-40.96V296.96c0-20.48 15.36-40.96 40.96-40.96s40.96 15.36 40.96 40.96v168.96c-5.12 25.6-20.48 40.96-40.96 40.96z"  /></svg>