<?xml version="1.0" standalone="no"?><!DOCTYPE svg PUBLIC "-//W3C//DTD SVG 1.1//EN" "http://www.w3.org/Graphics/SVG/1.1/DTD/svg11.dtd"><svg class="icon" width="64px" height="64.00px" viewBox="0 0 1024 1024" version="1.1" xmlns="http://www.w3.org/2000/svg"><path fill="#FEAC01" d="M593.92 670.72h-15.36c-35.84 0-66.56-10.24-97.28-30.72-30.72-15.36-56.32-40.96-76.8-66.56-10.24-15.36-10.24-40.96 10.24-56.32 15.36-10.24 40.96-10.24 51.2 10.24 15.36 20.48 30.72 35.84 51.2 46.08s40.96 20.48 66.56 20.48 46.08 0 71.68-10.24c20.48-10.24 40.96-20.48 56.32-35.84l122.88-122.88c30.72-30.72 46.08-71.68 46.08-112.64s-15.36-81.92-46.08-112.64-71.68-46.08-112.64-46.08-81.92 15.36-117.76 46.08l-71.68 66.56c-15.36 15.36-40.96 15.36-56.32 0-15.36-20.48-15.36-40.96 0-56.32l71.68-71.68c46.08-46.08 107.52-66.56 168.96-66.56 61.44 0 122.88 25.6 168.96 71.68s71.68 102.4 71.68 168.96c0 61.44-25.6 122.88-66.56 168.96L768 604.16c-25.6 25.6-51.2 40.96-87.04 56.32-30.72 5.12-56.32 10.24-87.04 10.24z"  /><path fill="#FEAC01" d="M312.32 952.32c-66.56 0-128-25.6-168.96-71.68-46.08-46.08-71.68-102.4-71.68-168.96 0-61.44 25.6-122.88 66.56-168.96l122.88-122.88c25.6-25.6 51.2-40.96 87.04-56.32 30.72-10.24 66.56-15.36 102.4-15.36s66.56 10.24 97.28 30.72c30.72 15.36 56.32 40.96 76.8 66.56 10.24 15.36 10.24 40.96-10.24 51.2-15.36 10.24-40.96 10.24-51.2-10.24-15.36-20.48-30.72-35.84-51.2-46.08-25.6-5.12-46.08-10.24-71.68-10.24s-46.08 0-71.68 10.24c-15.36 5.12-35.84 20.48-56.32 35.84l-122.88 122.88c-30.72 30.72-46.08 71.68-46.08 112.64s15.36 81.92 46.08 112.64c30.72 30.72 71.68 46.08 112.64 46.08 46.08 0 81.92-15.36 117.76-46.08l66.56-66.56c15.36-15.36 40.96-15.36 56.32 0s15.36 40.96 0 56.32l-71.68 71.68c-35.84 40.96-97.28 66.56-158.72 66.56z"  /></svg>