<?xml version="1.0" standalone="no"?><!DOCTYPE svg PUBLIC "-//W3C//DTD SVG 1.1//EN" "http://www.w3.org/Graphics/SVG/1.1/DTD/svg11.dtd"><svg class="icon" width="64px" height="64.00px" viewBox="0 0 1024 1024" version="1.1" xmlns="http://www.w3.org/2000/svg"><path fill="#FEAC01" d="M512 931.84c-20.48 0-40.96-15.36-40.96-40.96s-10.24-46.08-25.6-61.44-35.84-20.48-61.44-20.48H87.04c-20.48 0-40.96-15.36-40.96-40.96V128c0-20.48 15.36-40.96 40.96-40.96h256c56.32 0 107.52 20.48 148.48 61.44 40.96 40.96 61.44 92.16 61.44 148.48v599.04c-5.12 20.48-20.48 35.84-40.96 35.84z m-389.12-204.8h261.12c30.72 0 61.44 10.24 92.16 25.6V296.96C471.04 261.12 460.8 230.4 435.2 204.8s-56.32-40.96-92.16-40.96H122.88v563.2z"  /><path fill="#FEAC01" d="M512 931.84c-20.48 0-40.96-15.36-40.96-40.96V296.96c0-56.32 20.48-107.52 61.44-148.48s92.16-61.44 148.48-61.44h256c20.48 0 40.96 15.36 40.96 40.96V768c0 20.48-15.36 40.96-40.96 40.96h-296.96c-25.6 0-46.08 10.24-61.44 25.6s-25.6 40.96-25.6 61.44c0 20.48-20.48 35.84-40.96 35.84z m168.96-768c-35.84 0-66.56 15.36-92.16 40.96s-40.96 56.32-40.96 92.16v455.68c25.6-15.36 56.32-25.6 92.16-25.6h261.12v-563.2h-220.16z"  /></svg>