<?xml version="1.0" standalone="no"?><!DOCTYPE svg PUBLIC "-//W3C//DTD SVG 1.1//EN" "http://www.w3.org/Graphics/SVG/1.1/DTD/svg11.dtd"><svg class="icon" width="64px" height="64.00px" viewBox="0 0 1024 1024" version="1.1" xmlns="http://www.w3.org/2000/svg"><path fill="#FEAC01" d="M512 952.32c-240.64 0-440.32-199.68-440.32-440.32S271.36 71.68 512 71.68s440.32 199.68 440.32 440.32-199.68 440.32-440.32 440.32z m0-235.52c20.48 0 40.96 15.36 40.96 40.96v122.88c168.96-20.48 307.2-153.6 322.56-322.56h-122.88c-20.48 0-40.96-15.36-40.96-40.96s15.36-40.96 40.96-40.96h122.88c-20.48-168.96-153.6-307.2-322.56-322.56v122.88c-5.12 15.36-20.48 30.72-40.96 30.72s-40.96-15.36-40.96-35.84V148.48c-168.96 20.48-307.2 153.6-322.56 322.56h122.88c20.48 0 35.84 20.48 35.84 40.96s-15.36 40.96-40.96 40.96H148.48c20.48 168.96 153.6 307.2 322.56 322.56v-122.88c0-20.48 20.48-35.84 40.96-35.84z"  /></svg>