<?xml version="1.0" standalone="no"?><!DOCTYPE svg PUBLIC "-//W3C//DTD SVG 1.1//EN" "http://www.w3.org/Graphics/SVG/1.1/DTD/svg11.dtd"><svg class="icon" width="64px" height="64.00px" viewBox="0 0 1024 1024" version="1.1" xmlns="http://www.w3.org/2000/svg"><path fill="#FEAC01" d="M808.96 926.72H215.04c-30.72 0-66.56-15.36-87.04-35.84-25.6-25.6-35.84-56.32-35.84-87.04V332.8c0-10.24 5.12-20.48 15.36-30.72L491.52 5.12c15.36-10.24 35.84-10.24 46.08 0L921.6 302.08c10.24 5.12 15.36 20.48 15.36 30.72v471.04c0 30.72-15.36 66.56-35.84 87.04-25.6 20.48-56.32 35.84-92.16 35.84zM163.84 353.28v450.56c0 10.24 5.12 25.6 15.36 30.72s20.48 15.36 30.72 15.36h599.04c10.24 0 25.6-5.12 30.72-15.36s15.36-20.48 15.36-30.72V353.28L512 81.92 163.84 353.28z"  /><path fill="#FEAC01" d="M640 926.72c-20.48 0-40.96-15.36-40.96-40.96V501.76H419.84v389.12c0 20.48-15.36 40.96-40.96 40.96s-40.96-15.36-40.96-40.96V460.8c0-20.48 15.36-40.96 40.96-40.96h256c20.48 0 40.96 15.36 40.96 40.96v424.96c0 20.48-15.36 40.96-35.84 40.96z"  /></svg>