<?xml version="1.0" standalone="no"?><!DOCTYPE svg PUBLIC "-//W3C//DTD SVG 1.1//EN" "http://www.w3.org/Graphics/SVG/1.1/DTD/svg11.dtd"><svg class="icon" width="64px" height="64.00px" viewBox="0 0 1024 1024" version="1.1" xmlns="http://www.w3.org/2000/svg"><path fill="#FEAC01" d="M512 378.88c-204.8 0-419.84-51.2-419.84-163.84S307.2 46.08 512 46.08s419.84 51.2 419.84 163.84S716.8 378.88 512 378.88z m0-256c-225.28 0-348.16 61.44-348.16 92.16S286.72 302.08 512 302.08s348.16-61.44 348.16-92.16-122.88-87.04-348.16-87.04zM512 675.84c-204.8 0-419.84-51.2-419.84-163.84 0-20.48 15.36-40.96 40.96-40.96s30.72 20.48 30.72 40.96c0 25.6 117.76 92.16 348.16 92.16s348.16-61.44 348.16-92.16c0-20.48 15.36-40.96 40.96-40.96s40.96 15.36 40.96 40.96c-10.24 112.64-225.28 163.84-430.08 163.84z"  /><path fill="#FEAC01" d="M512 977.92c-204.8 0-419.84-51.2-419.84-163.84V215.04c0-20.48 15.36-40.96 40.96-40.96s40.96 15.36 40.96 40.96v599.04c0 25.6 117.76 92.16 348.16 92.16s348.16-61.44 348.16-92.16V215.04c0-20.48 15.36-40.96 40.96-40.96s40.96 15.36 40.96 40.96v599.04c-20.48 112.64-235.52 163.84-440.32 163.84z"  /></svg>