<?xml version="1.0" standalone="no"?><!DOCTYPE svg PUBLIC "-//W3C//DTD SVG 1.1//EN" "http://www.w3.org/Graphics/SVG/1.1/DTD/svg11.dtd"><svg class="icon" width="64px" height="64.00px" viewBox="0 0 1024 1024" version="1.1" xmlns="http://www.w3.org/2000/svg"><path fill="#FEAC01" d="M512 552.96c-5.12 0-10.24 0-15.36-5.12l-404.48-204.8c-15.36-5.12-20.48-20.48-20.48-30.72s10.24-25.6 20.48-35.84l404.48-199.68c10.24-5.12 25.6-5.12 35.84 0l404.48 199.68c15.36 5.12 20.48 20.48 20.48 35.84s-10.24 25.6-20.48 35.84l-404.48 199.68c-10.24 0-15.36 5.12-20.48 5.12zM194.56 312.32L512 471.04l317.44-158.72L512 153.6 194.56 312.32zM512 952.32c-5.12 0-10.24 0-15.36-5.12l-404.48-199.68c-20.48-10.24-25.6-30.72-15.36-51.2s30.72-25.6 51.2-15.36L512 870.4l384-194.56c20.48-10.24 40.96 0 51.2 15.36 10.24 20.48 0 40.96-15.36 51.2l-404.48 199.68c-5.12 10.24-10.24 10.24-15.36 10.24z"  /><path fill="#FEAC01" d="M512 752.64c-5.12 0-10.24 0-15.36-5.12l-404.48-199.68c-20.48-10.24-25.6-30.72-15.36-51.2s30.72-25.6 51.2-15.36l384 194.56 384-194.56c20.48-10.24 40.96 0 51.2 15.36 10.24 20.48 0 40.96-15.36 51.2l-404.48 199.68c-5.12 5.12-10.24 5.12-15.36 5.12z"  /></svg>