<?xml version="1.0" standalone="no"?><!DOCTYPE svg PUBLIC "-//W3C//DTD SVG 1.1//EN" "http://www.w3.org/Graphics/SVG/1.1/DTD/svg11.dtd"><svg class="icon" width="64px" height="64.00px" viewBox="0 0 1024 1024" version="1.1" xmlns="http://www.w3.org/2000/svg"><path fill="#FEAC01" d="M768 977.92H256c-30.72 0-66.56-15.36-87.04-35.84-25.6-25.6-35.84-56.32-35.84-87.04V168.96c0-30.72 15.36-66.56 35.84-87.04S225.28 46.08 256 46.08h343.04c10.24 0 20.48 5.12 25.6 10.24l256 256c5.12 5.12 10.24 15.36 10.24 25.6v512c0 30.72-15.36 66.56-35.84 87.04-20.48 25.6-56.32 40.96-87.04 40.96zM256 122.88c-10.24 0-25.6 5.12-30.72 15.36-10.24 10.24-15.36 20.48-15.36 30.72v680.96c0 10.24 5.12 25.6 15.36 30.72 10.24 10.24 20.48 15.36 30.72 15.36h512c10.24 0 25.6-5.12 30.72-15.36 10.24-10.24 15.36-20.48 15.36-30.72V358.4l-235.52-235.52H256z"  /><path fill="#FEAC01" d="M855.04 378.88h-256c-20.48 0-40.96-15.36-40.96-40.96v-256c0-20.48 15.36-40.96 40.96-40.96s40.96 15.36 40.96 40.96v215.04h215.04c20.48 0 40.96 15.36 40.96 40.96s-20.48 40.96-40.96 40.96zM680.96 593.92H343.04c-20.48 0-40.96-15.36-40.96-40.96 0-20.48 15.36-40.96 40.96-40.96h343.04c20.48 0 40.96 15.36 40.96 40.96-5.12 20.48-25.6 40.96-46.08 40.96zM680.96 762.88H343.04c-20.48 0-40.96-15.36-40.96-40.96s15.36-40.96 40.96-40.96h343.04c20.48 0 40.96 15.36 40.96 40.96s-25.6 40.96-46.08 40.96zM424.96 419.84H343.04c-20.48 0-40.96-15.36-40.96-40.96s15.36-40.96 40.96-40.96h87.04c20.48 0 40.96 15.36 40.96 40.96s-25.6 40.96-46.08 40.96z"  /></svg>