<?xml version="1.0" standalone="no"?><!DOCTYPE svg PUBLIC "-//W3C//DTD SVG 1.1//EN" "http://www.w3.org/Graphics/SVG/1.1/DTD/svg11.dtd"><svg class="icon" width="64px" height="64.00px" viewBox="0 0 1024 1024" version="1.1" xmlns="http://www.w3.org/2000/svg"><path fill="#FEAC01" d="M117.76 778.24h788.48v76.8H117.76z"  /><path fill="#FEAC01" d="M819.2 988.16H204.8c-35.84 0-66.56-15.36-87.04-35.84-25.6-25.6-35.84-56.32-35.84-87.04V378.88c0-10.24 5.12-20.48 15.36-30.72l394.24-307.2c15.36-10.24 35.84-10.24 46.08 0l394.24 307.2c10.24 5.12 15.36 20.48 15.36 30.72v481.28c0 30.72-15.36 66.56-35.84 87.04-25.6 30.72-56.32 40.96-92.16 40.96zM153.6 399.36v465.92c0 15.36 5.12 25.6 15.36 35.84s20.48 15.36 35.84 15.36h614.4c15.36 0 25.6-5.12 35.84-15.36 10.24-10.24 15.36-20.48 15.36-35.84V399.36l-358.4-276.48-358.4 276.48z"  /><path fill="#FEAC01" d="M384 634.88l40.96-61.44c30.72 20.48 51.2 30.72 76.8 30.72s35.84-10.24 35.84-30.72c0-40.96-138.24-51.2-138.24-143.36 0-66.56 46.08-107.52 117.76-107.52 46.08 0 81.92 20.48 107.52 46.08l-46.08 51.2c-20.48-15.36-35.84-25.6-56.32-25.6-25.6 0-35.84 5.12-35.84 25.6 0 40.96 138.24 40.96 138.24 143.36 0 61.44-40.96 112.64-128 112.64-30.72 0-76.8-10.24-112.64-40.96z m97.28-363.52h61.44v81.92H481.28V271.36z m0 363.52h61.44v92.16H481.28v-92.16z"  /></svg>