<?xml version="1.0" standalone="no"?><!DOCTYPE svg PUBLIC "-//W3C//DTD SVG 1.1//EN" "http://www.w3.org/Graphics/SVG/1.1/DTD/svg11.dtd"><svg class="icon" width="64px" height="64.00px" viewBox="0 0 1024 1024" version="1.1" xmlns="http://www.w3.org/2000/svg"><path fill="#FEAC01" d="M931.84 865.28H92.16c-20.48 0-40.96-15.36-40.96-40.96v-199.68c0-15.36 10.24-30.72 25.6-35.84 25.6-10.24 46.08-35.84 46.08-66.56s-15.36-56.32-40.96-66.56c-15.36-5.12-25.6-20.48-25.6-35.84V220.16c0-20.48 15.36-40.96 40.96-40.96h834.56c20.48 0 40.96 15.36 40.96 40.96v199.68c0 15.36-10.24 30.72-25.6 35.84-25.6 10.24-46.08 35.84-46.08 66.56s20.48 56.32 46.08 66.56c15.36 5.12 25.6 20.48 25.6 35.84v199.68c-5.12 20.48-20.48 40.96-40.96 40.96zM133.12 788.48h757.76v-138.24c-40.96-25.6-71.68-71.68-71.68-128 0-51.2 25.6-97.28 71.68-128V256H133.12v138.24c40.96 25.6 71.68 76.8 71.68 128s-25.6 102.4-71.68 128v138.24z"  /><path fill="#FEAC01" d="M512 491.52c-10.24 0-20.48-5.12-25.6-10.24L389.12 384c-15.36-15.36-15.36-40.96 0-56.32s40.96-15.36 56.32 0L512 399.36l71.68-71.68c15.36-15.36 40.96-15.36 56.32 0s15.36 40.96 0 56.32l-97.28 97.28c-10.24 5.12-20.48 10.24-30.72 10.24z"  /><path fill="#FEAC01" d="M629.76 512H394.24c-20.48 0-35.84-20.48-35.84-40.96s15.36-40.96 40.96-40.96h235.52c20.48 0 40.96 15.36 40.96 40.96s-25.6 40.96-46.08 40.96zM629.76 629.76H394.24c-20.48 0-35.84-15.36-35.84-35.84s15.36-40.96 40.96-40.96h235.52c20.48 0 40.96 15.36 40.96 40.96s-25.6 35.84-46.08 35.84z"  /><path fill="#FEAC01" d="M512 747.52c-20.48 0-40.96-15.36-40.96-40.96V471.04c0-20.48 15.36-40.96 40.96-40.96s40.96 15.36 40.96 40.96v235.52c0 20.48-20.48 40.96-40.96 40.96z"  /></svg>