<?xml version="1.0" standalone="no"?><!DOCTYPE svg PUBLIC "-//W3C//DTD SVG 1.1//EN" "http://www.w3.org/Graphics/SVG/1.1/DTD/svg11.dtd"><svg class="icon" width="64px" height="64.00px" viewBox="0 0 1024 1024" version="1.1" xmlns="http://www.w3.org/2000/svg"><path fill="#FEAC01" d="M803.84 844.8H220.16c-61.44 0-112.64-51.2-112.64-112.64V291.84c0-61.44 51.2-112.64 112.64-112.64h583.68c61.44 0 112.64 51.2 112.64 112.64v440.32c0 61.44-51.2 112.64-112.64 112.64zM184.32 368.64v363.52c0 20.48 15.36 35.84 35.84 35.84h583.68c20.48 0 35.84-15.36 35.84-35.84V368.64l-307.2 215.04c-15.36 10.24-30.72 10.24-46.08 0L184.32 368.64z m5.12-92.16L512 501.76l322.56-225.28c-5.12-10.24-15.36-20.48-30.72-20.48H220.16c-15.36 0-25.6 10.24-30.72 20.48z"  /></svg>