<?xml version="1.0" standalone="no"?><!DOCTYPE svg PUBLIC "-//W3C//DTD SVG 1.1//EN" "http://www.w3.org/Graphics/SVG/1.1/DTD/svg11.dtd"><svg class="icon" width="64px" height="64.00px" viewBox="0 0 1024 1024" version="1.1" xmlns="http://www.w3.org/2000/svg"><path fill="#FEAC01" d="M844.8 916.48h-665.6c-20.48 0-40.96-15.36-40.96-40.96V348.16c0-20.48 15.36-40.96 40.96-40.96s40.96 15.36 40.96 40.96v486.4h593.92V348.16c0-20.48 15.36-40.96 40.96-40.96s40.96 15.36 40.96 40.96v527.36c-10.24 20.48-25.6 40.96-51.2 40.96z"  /><path fill="#FEAC01" d="M921.6 389.12H102.4c-20.48 0-40.96-15.36-40.96-40.96v-204.8c0-20.48 15.36-40.96 40.96-40.96h819.2c20.48 0 40.96 15.36 40.96 40.96v204.8c-5.12 20.48-20.48 40.96-40.96 40.96zM143.36 312.32h742.4V184.32H143.36v128zM588.8 552.96h-153.6c-20.48 0-40.96-15.36-40.96-40.96s15.36-40.96 40.96-40.96h148.48c20.48 0 40.96 15.36 40.96 40.96s-15.36 40.96-35.84 40.96z"  /></svg>